<?xml version="1.0" encoding="UTF-8" standalone="no" ?>
<!DOCTYPE svg PUBLIC "-//W3C//DTD SVG 1.1//EN" "http://www.w3.org/Graphics/SVG/1.1/DTD/svg11.dtd">
<svg xmlns="http://www.w3.org/2000/svg" xmlns:xlink="http://www.w3.org/1999/xlink" version="1.1" width="1080" height="1080" viewBox="0 0 1080 1080" xml:space="preserve">
<desc>Created with Fabric.js 5.2.4</desc>
<defs>
</defs>
<g transform="matrix(1 0 0 1 540 540)" id="4c182d92-c220-4aa0-99be-4601e97e62e8"  >
<rect style="stroke: none; stroke-width: 1; stroke-dasharray: none; stroke-linecap: butt; stroke-dashoffset: 0; stroke-linejoin: miter; stroke-miterlimit: 4; fill: rgb(255,255,255); fill-rule: nonzero; opacity: 1; visibility: hidden;" vector-effect="non-scaling-stroke"  x="-540" y="-540" rx="0" ry="0" width="1080" height="1080" />
</g>
<g transform="matrix(1 0 0 1 540 540)" id="01584ee5-08de-492e-ba80-d638044e6721"  >
</g>
<g transform="matrix(1 0 0 1 540 540)"  >
<g style="" vector-effect="non-scaling-stroke"   >
		<g transform="matrix(1 0 0 1 0 0)"  >
<rect style="stroke: none; stroke-width: 1; stroke-dasharray: none; stroke-linecap: butt; stroke-dashoffset: 0; stroke-linejoin: miter; stroke-miterlimit: 4; fill: rgb(255,255,255); fill-rule: nonzero; opacity: 1;" vector-effect="non-scaling-stroke"  x="-47.5826" y="-47.5826" rx="47.5826" ry="47.5826" width="95.1652" height="95.1652" />
</g>
		<g transform="matrix(1 0 0 1 0 0)"  >
<rect style="stroke: rgb(233,234,236); stroke-width: 0.834783; stroke-dasharray: none; stroke-linecap: butt; stroke-dashoffset: 0; stroke-linejoin: miter; stroke-miterlimit: 4; fill: none; fill-rule: nonzero; opacity: 1;" vector-effect="non-scaling-stroke"  x="-47.5826" y="-47.5826" rx="47.5826" ry="47.5826" width="95.1652" height="95.1652" />
</g>
		<g transform="matrix(1 0 0 1 -0.21 -18.54)"  >
<path style="stroke: none; stroke-width: 1; stroke-dasharray: none; stroke-linecap: butt; stroke-dashoffset: 0; stroke-linejoin: miter; stroke-miterlimit: 4; fill: rgb(250,41,33); fill-rule: nonzero; opacity: 1;" vector-effect="non-scaling-stroke"  transform=" translate(-47.79, -29.46)" d="M 45.416 33.5745 C 50.1219 37.7635 53.9144 42.2526 56.3551 46.4832 C 60.5471 38.9452 63.3482 29.9879 63.3835 24.2829 C 63.3835 24.2425 63.3835 24.2057 63.3835 24.1715 C 63.3835 15.7297 55.0081 12.4443 47.7933 12.4443 C 40.5786 12.4443 32.2031 15.7297 32.2031 24.1715 C 32.2031 24.2866 32.2031 24.4409 32.2031 24.627 C 36.2246 26.4246 40.9914 29.6364 45.416 33.5745 Z" stroke-linecap="round" />
</g>
		<g transform="matrix(1 0 0 1 -18.11 -6.66)"  >
<path style="stroke: none; stroke-width: 1; stroke-dasharray: none; stroke-linecap: butt; stroke-dashoffset: 0; stroke-linejoin: miter; stroke-miterlimit: 4; fill: rgb(237,121,181); fill-rule: nonzero; opacity: 1;" vector-effect="non-scaling-stroke"  transform=" translate(-29.89, -41.34)" d="M 19.7443 56.5951 C 22.6855 53.3048 27.1978 49.739 32.2898 46.7243 C 37.707 43.5185 43.1254 41.2789 47.8812 40.254 C 42.0463 33.9159 34.4394 28.4693 29.0527 26.673 C 29.0149 26.6607 28.9796 26.6497 28.9479 26.6387 C 20.9622 24.0305 15.2661 31.0236 13.0374 37.9225 C 10.8087 44.8214 11.3275 53.846 19.3132 56.4542 C 19.4216 56.4897 19.5677 56.5375 19.7443 56.5951 Z" stroke-linecap="round" />
</g>
		<g transform="matrix(1 0 0 1 20.43 -6.16)"  >
<path style="stroke: none; stroke-width: 1; stroke-dasharray: none; stroke-linecap: butt; stroke-dashoffset: 0; stroke-linejoin: miter; stroke-miterlimit: 4; fill: rgb(255,180,0); fill-rule: nonzero; opacity: 1;" vector-effect="non-scaling-stroke"  transform=" translate(-68.43, -41.84)" d="M 82.6341 37.8063 C 80.4054 30.9074 74.7093 23.9143 66.7236 26.5225 C 66.614 26.558 66.4679 26.6057 66.2925 26.6633 C 65.8358 31.0629 64.2708 36.6149 61.9129 42.0627 C 59.4053 47.8571 56.3301 52.8715 53.082 56.5119 C 61.5074 58.1919 70.8462 58.1013 76.2536 56.3723 C 76.2914 56.3601 76.3267 56.3478 76.3583 56.338 C 84.344 53.7286 84.8629 44.704 82.6341 37.8063 Z" stroke-linecap="round" />
</g>
		<g transform="matrix(1 0 0 1 -15.63 16.76)"  >
<path style="stroke: none; stroke-width: 1; stroke-dasharray: none; stroke-linecap: butt; stroke-dashoffset: 0; stroke-linejoin: miter; stroke-miterlimit: 4; fill: rgb(30,131,247); fill-rule: nonzero; opacity: 1;" vector-effect="non-scaling-stroke"  transform=" translate(-32.37, -64.76)" d="M 40.6729 63.3397 C 39.315 57.1694 38.8704 51.2954 39.3698 46.4316 C 31.5716 50.0525 24.0694 55.6436 20.7044 60.2392 C 20.6812 60.271 20.6593 60.3017 20.6398 60.3286 C 15.7049 67.1589 20.5595 74.7668 26.3968 79.0293 C 32.2329 83.293 40.9299 85.5853 45.866 78.755 C 45.9342 78.6619 46.0243 78.537 46.1327 78.3864 C 43.9295 74.5574 41.9493 69.1402 40.6729 63.3397 Z" stroke-linecap="round" />
</g>
		<g transform="matrix(1 0 0 1 11.89 21.75)"  >
<path style="stroke: none; stroke-width: 1; stroke-dasharray: none; stroke-linecap: butt; stroke-dashoffset: 0; stroke-linejoin: miter; stroke-miterlimit: 4; fill: rgb(24,194,73); fill-rule: nonzero; opacity: 1;" vector-effect="non-scaling-stroke"  transform=" translate(-59.89, -69.75)" d="M 74.9007 59.8885 C 70.5979 60.8118 64.8628 61.031 58.9804 60.4591 C 52.7241 59.8518 47.0317 58.4607 42.584 56.4795 C 43.5985 65.0547 46.5701 73.9569 49.8767 78.5941 C 49.8998 78.626 49.9218 78.6566 49.9413 78.6835 C 54.8761 85.5138 63.5731 83.2215 69.4104 78.9578 C 75.2466 74.6941 80.1023 67.0862 75.1674 60.2571 C 75.0992 60.164 75.0091 60.0391 74.9007 59.8885 Z" stroke-linecap="round" />
</g>
</g>
</g>
<g transform="matrix(0.37 0 0 0.37 540 540)" style="" id="6185736d-9e63-42c3-a684-826847a94849"  >
		<text xml:space="preserve" font-family="Raleway" font-size="105" font-style="normal" font-weight="900" style="stroke: none; stroke-width: 1; stroke-dasharray: none; stroke-linecap: butt; stroke-dashoffset: 0; stroke-linejoin: miter; stroke-miterlimit: 4; fill: rgb(0,0,0); fill-rule: nonzero; opacity: 1; white-space: pre;" ><tspan x="-126.1" y="32.98" >STAT</tspan></text>
</g>
</svg>